<svg xmlns="http://www.w3.org/2000/svg" xmlns:xlink="http://www.w3.org/1999/xlink" width="100" zoomAndPan="magnify" viewBox="0 0 75 30.000001" height="40" preserveAspectRatio="xMidYMid meet" version="1.0"><defs><g><g id="id1"/></g><clipPath id="id2"><path d="M 32.109375 4.394531 L 39.515625 4.394531 L 39.515625 19.375 L 32.109375 19.375 Z M 32.109375 4.394531 " clip-rule="nonzero"/></clipPath></defs><g clip-path="url(#id2)"><path fill="rgb(100%, 89.019775%, 72.549438%)" d="M 36.820312 7.019531 C 36.785156 8.253906 36.75 9.492188 36.714844 10.726562 C 36.699219 11.359375 36.691406 11.988281 36.6875 12.621094 C 36.683594 12.710938 36.691406 12.804688 36.71875 12.890625 C 36.746094 12.957031 36.78125 13.015625 36.824219 13.070312 C 36.871094 13.019531 36.941406 12.976562 36.960938 12.917969 C 37.167969 12.320312 37.371094 11.710938 37.566406 11.097656 C 37.699219 10.691406 37.808594 10.273438 37.941406 9.867188 C 37.988281 9.695312 38.085938 9.5625 38.238281 9.472656 C 38.386719 9.378906 38.546875 9.351562 38.71875 9.386719 C 39.070312 9.453125 39.28125 9.664062 39.355469 10.019531 C 39.515625 11.398438 39.242188 12.667969 38.359375 13.757812 C 38.054688 14.15625 37.710938 14.523438 37.332031 14.851562 C 36.855469 15.261719 36.578125 15.777344 36.503906 16.40625 C 36.402344 17.03125 36.335938 17.660156 36.265625 18.285156 C 36.242188 18.511719 36.265625 18.738281 36.265625 18.945312 C 36.265625 19.15625 36.144531 19.308594 35.9375 19.246094 C 35.804688 19.171875 35.738281 19.054688 35.730469 18.902344 C 35.859375 17.875 35.996094 16.851562 36.160156 15.832031 C 36.246094 15.304688 36.585938 14.933594 36.976562 14.570312 C 37.851562 13.789062 38.585938 12.894531 38.828125 11.703125 C 38.898438 11.210938 38.917969 10.71875 38.878906 10.226562 C 38.878906 10.105469 38.714844 10 38.628906 9.875 C 38.542969 9.96875 38.421875 10.050781 38.382812 10.160156 C 38.175781 10.785156 38.003906 11.425781 37.789062 12.042969 C 37.644531 12.449219 37.476562 12.84375 37.289062 13.226562 C 37.175781 13.453125 36.953125 13.675781 36.703125 13.566406 C 36.460938 13.46875 36.296875 13.300781 36.207031 13.054688 C 36.132812 12.457031 36.101562 11.855469 36.113281 11.253906 C 36.113281 9.734375 36.171875 8.214844 36.160156 6.695312 C 36.125 6.226562 36.042969 5.769531 35.910156 5.320312 C 35.882812 5.203125 35.753906 5.097656 35.671875 4.996094 C 35.570312 5.113281 35.394531 5.222656 35.382812 5.34375 C 35.3125 5.988281 35.257812 6.636719 35.25 7.285156 C 35.25 8.273438 35.308594 9.265625 35.273438 10.253906 C 35.253906 10.664062 35.144531 11.054688 34.945312 11.414062 C 34.859375 11.628906 34.703125 11.730469 34.472656 11.707031 C 34.242188 11.6875 34.105469 11.566406 34.054688 11.339844 C 33.832031 10.714844 33.71875 10.054688 33.554688 9.410156 C 33.46875 9.082031 33.378906 8.757812 33.28125 8.433594 C 33.207031 8.210938 33.058594 8.210938 32.957031 8.386719 C 32.792969 8.632812 32.695312 8.898438 32.65625 9.191406 C 32.65625 9.894531 32.695312 10.597656 32.773438 11.296875 C 32.824219 11.746094 33.160156 12.078125 33.472656 12.382812 C 33.710938 12.605469 33.964844 12.816406 34.226562 13.015625 C 34.667969 13.304688 34.882812 13.71875 34.871094 14.25 C 34.84375 15.484375 34.828125 16.722656 34.789062 17.953125 C 34.789062 18.042969 34.628906 18.128906 34.546875 18.210938 C 34.492188 18.113281 34.390625 18.011719 34.390625 17.914062 C 34.390625 16.769531 34.390625 15.625 34.40625 14.480469 C 34.425781 13.949219 34.214844 13.539062 33.773438 13.25 C 33.40625 12.96875 33.070312 12.65625 32.761719 12.3125 C 32.222656 11.742188 32.160156 11 32.136719 10.261719 C 32.113281 9.886719 32.105469 9.511719 32.121094 9.136719 C 32.117188 8.65625 32.304688 8.261719 32.675781 7.964844 C 33.085938 7.652344 33.546875 7.738281 33.71875 8.210938 C 33.941406 8.808594 34.070312 9.4375 34.234375 10.050781 C 34.3125 10.34375 34.363281 10.640625 34.441406 10.933594 C 34.46875 11 34.507812 11.058594 34.554688 11.109375 C 34.59375 11.054688 34.660156 11 34.667969 10.941406 C 34.722656 10.71875 34.753906 10.492188 34.761719 10.265625 C 34.761719 8.820312 34.742188 7.375 34.746094 5.929688 C 34.757812 5.632812 34.804688 5.347656 34.878906 5.0625 C 34.910156 4.90625 34.984375 4.773438 35.105469 4.671875 C 35.226562 4.566406 35.363281 4.511719 35.523438 4.507812 C 35.863281 4.472656 36.238281 4.539062 36.351562 4.894531 C 36.511719 5.476562 36.640625 6.058594 36.742188 6.652344 C 36.765625 6.773438 36.777344 6.894531 36.78125 7.019531 Z M 36.820312 7.019531 " fill-opacity="1" fill-rule="nonzero"/></g><g fill="rgb(80.389404%, 57.649231%, 25.489807%)" fill-opacity="1"><g transform="translate(5.466421, 17.794309)"><g><path d="M 2.574219 0.117188 C 3.660156 0.117188 4.023438 -0.488281 4.21875 -1.007812 L 4.277344 -1.007812 C 4.277344 -0.285156 4.648438 0.117188 5.402344 0.117188 C 6.1875 0.117188 6.53125 -0.351562 6.53125 -0.949219 L 6.390625 -0.949219 C 6.390625 -0.605469 6.226562 -0.148438 5.785156 -0.148438 C 5.460938 -0.148438 5.257812 -0.371094 5.257812 -1.027344 L 5.265625 -7.488281 L 3.4375 -7.136719 L 3.4375 -7.007812 C 3.945312 -7.007812 4.277344 -6.882812 4.277344 -6.492188 L 4.277344 -4.25 C 4.054688 -4.621094 3.621094 -4.945312 2.917969 -4.945312 C 1.59375 -4.945312 0.390625 -3.964844 0.390625 -2.25 C 0.390625 -0.566406 1.378906 0.117188 2.574219 0.117188 Z M 3.054688 -4.777344 C 3.777344 -4.777344 4.277344 -4.179688 4.277344 -3.476562 C 4.277344 -3.476562 4.277344 -1.976562 4.277344 -1.976562 C 4.277344 -1.183594 3.828125 -0.246094 2.886719 -0.246094 C 1.917969 -0.246094 1.371094 -0.980469 1.371094 -2.613281 C 1.371094 -3.816406 1.949219 -4.777344 3.054688 -4.777344 Z M 3.054688 -4.777344 "/></g></g></g><g fill="rgb(80.389404%, 57.649231%, 25.489807%)" fill-opacity="1"><g transform="translate(12.00443, 17.794309)"><g><path d="M 2.878906 0.117188 C 4.425781 0.117188 4.972656 -1.007812 5.003906 -2.144531 L 4.875 -2.144531 C 4.875 -1.644531 4.609375 -0.421875 3.261719 -0.421875 C 1.976562 -0.421875 1.371094 -1.410156 1.371094 -2.78125 C 1.371094 -2.867188 1.371094 -2.957031 1.378906 -3.042969 L 4.875 -3.042969 C 4.875 -4.082031 4.179688 -4.945312 2.996094 -4.945312 C 1.359375 -4.945312 0.390625 -3.679688 0.390625 -2.386719 C 0.390625 -0.941406 1.234375 0.117188 2.878906 0.117188 Z M 1.398438 -3.171875 C 1.527344 -4.121094 2.113281 -4.746094 2.898438 -4.746094 C 3.925781 -4.746094 4.054688 -3.886719 4.054688 -3.171875 Z M 1.398438 -3.171875 "/></g></g></g><g fill="rgb(80.389404%, 57.649231%, 25.489807%)" fill-opacity="1"><g transform="translate(17.260285, 17.794309)"><g/></g></g><g fill="rgb(80.389404%, 57.649231%, 25.489807%)" fill-opacity="1"><g transform="translate(20.010557, 17.794309)"><g><path d="M 0.292969 -7.007812 C 0.800781 -7.007812 1.117188 -6.949219 1.117188 -6.558594 L 1.117188 -0.65625 C 1.117188 -0.195312 0.890625 -0.128906 0.421875 -0.128906 L 0.421875 0 L 2.769531 0 L 2.769531 -0.128906 C 2.308594 -0.128906 2.09375 -0.195312 2.09375 -0.65625 L 2.09375 -7.488281 L 0.292969 -7.136719 Z M 0.292969 -7.007812 "/></g></g></g><g fill="rgb(80.389404%, 57.649231%, 25.489807%)" fill-opacity="1"><g transform="translate(22.888066, 17.794309)"><g><path d="M 0.390625 -1.410156 C 0.390625 -0.527344 0.980469 0.117188 1.996094 0.117188 C 2.574219 0.117188 3.261719 -0.148438 3.632812 -0.832031 L 3.671875 -0.832031 C 3.671875 -0.167969 3.945312 0.117188 4.757812 0.117188 C 5.640625 0.117188 5.875 -0.402344 5.875 -0.949219 L 5.746094 -0.949219 C 5.746094 -0.625 5.578125 -0.136719 5.121094 -0.136719 C 4.738281 -0.136719 4.648438 -0.441406 4.648438 -0.949219 L 4.648438 -3.328125 C 4.648438 -4.277344 3.828125 -4.945312 2.496094 -4.945312 C 1.59375 -4.945312 0.566406 -4.40625 0.566406 -3.121094 L 0.695312 -3.121094 C 0.695312 -3.867188 1.261719 -4.453125 2.308594 -4.453125 C 3.339844 -4.453125 3.671875 -3.867188 3.671875 -3.328125 L 3.671875 -2.75 C 3.417969 -2.925781 3.054688 -3.0625 2.429688 -3.0625 C 1.761719 -3.0625 0.390625 -2.769531 0.390625 -1.410156 Z M 2.449219 -0.421875 C 1.734375 -0.421875 1.371094 -0.921875 1.371094 -1.714844 C 1.371094 -2.269531 1.675781 -2.878906 2.429688 -2.925781 C 2.839844 -2.957031 3.359375 -2.828125 3.671875 -2.574219 L 3.671875 -1.675781 C 3.671875 -0.84375 3.082031 -0.421875 2.449219 -0.421875 Z M 2.449219 -0.421875 "/></g></g></g><g fill="rgb(80.389404%, 57.649231%, 25.489807%)" fill-opacity="1"><g transform="translate(28.769845, 17.794309)"><g/></g></g><g fill="rgb(80.389404%, 57.649231%, 25.489807%)" fill-opacity="1"><g transform="translate(31.520118, 17.794309)"><g/></g></g><g fill="rgb(80.389404%, 57.649231%, 25.489807%)" fill-opacity="1"><g transform="translate(34.27039, 17.794309)"><g/></g></g><g fill="rgb(80.389404%, 57.649231%, 25.489807%)" fill-opacity="1"><g transform="translate(37.020662, 17.794309)"><g/></g></g><g fill="rgb(80.389404%, 57.649231%, 25.489807%)" fill-opacity="1"><g transform="translate(39.770934, 17.794309)"><g/></g></g><g fill="rgb(80.389404%, 57.649231%, 25.489807%)" fill-opacity="1"><g transform="translate(42.518866, 17.794309)"><g><path d="M 0.195312 -4.699219 L 0.921875 -4.699219 L 0.921875 -1.046875 C 0.921875 -0.214844 1.195312 0.128906 2.066406 0.128906 C 2.859375 0.128906 3.121094 -0.46875 3.121094 -0.949219 L 2.996094 -0.949219 C 2.996094 -0.617188 2.820312 -0.148438 2.378906 -0.148438 C 1.976562 -0.148438 1.898438 -0.429688 1.898438 -0.949219 L 1.898438 -4.699219 L 2.945312 -4.699219 L 2.945312 -4.828125 L 1.898438 -4.828125 L 1.898438 -6.519531 L 1.773438 -6.519531 C 1.644531 -5.785156 1.253906 -4.964844 0.195312 -4.828125 Z M 0.195312 -4.699219 "/></g></g></g><g fill="rgb(80.389404%, 57.649231%, 25.489807%)" fill-opacity="1"><g transform="translate(45.650847, 17.794309)"><g><path d="M 0.292969 -4.347656 C 0.800781 -4.347656 1.105469 -4.199219 1.105469 -3.808594 L 1.105469 -0.65625 C 1.105469 -0.207031 0.882812 -0.128906 0.410156 -0.128906 L 0.410156 0 L 2.78125 0 L 2.78125 -0.128906 C 2.328125 -0.128906 2.085938 -0.195312 2.085938 -0.65625 L 2.085938 -4.828125 L 0.292969 -4.472656 Z M 1.59375 -5.71875 C 1.890625 -5.71875 2.132812 -5.953125 2.132812 -6.246094 C 2.132812 -6.539062 1.890625 -6.773438 1.59375 -6.773438 C 1.300781 -6.773438 1.066406 -6.539062 1.066406 -6.246094 C 1.066406 -5.953125 1.300781 -5.71875 1.59375 -5.71875 Z M 1.59375 -5.71875 "/></g></g></g><g fill="rgb(80.389404%, 57.649231%, 25.489807%)" fill-opacity="1"><g transform="translate(48.538144, 17.794309)"><g><path d="M 2.878906 0.117188 C 4.425781 0.117188 4.972656 -1.007812 5.003906 -2.144531 L 4.875 -2.144531 C 4.875 -1.644531 4.609375 -0.421875 3.261719 -0.421875 C 1.976562 -0.421875 1.371094 -1.410156 1.371094 -2.78125 C 1.371094 -2.867188 1.371094 -2.957031 1.378906 -3.042969 L 4.875 -3.042969 C 4.875 -4.082031 4.179688 -4.945312 2.996094 -4.945312 C 1.359375 -4.945312 0.390625 -3.679688 0.390625 -2.386719 C 0.390625 -0.941406 1.234375 0.117188 2.878906 0.117188 Z M 1.398438 -3.171875 C 1.527344 -4.121094 2.113281 -4.746094 2.898438 -4.746094 C 3.925781 -4.746094 4.054688 -3.886719 4.054688 -3.171875 Z M 1.398438 -3.171875 "/></g></g></g><g fill="rgb(80.389404%, 57.649231%, 25.489807%)" fill-opacity="1"><g transform="translate(53.794, 17.794309)"><g><path d="M 0.292969 -4.472656 L 0.292969 -4.347656 C 0.800781 -4.347656 1.105469 -4.179688 1.105469 -3.789062 L 1.105469 -0.65625 C 1.105469 -0.207031 0.882812 -0.128906 0.410156 -0.128906 L 0.410156 0 L 2.78125 0 L 2.78125 -0.128906 C 2.328125 -0.128906 2.105469 -0.195312 2.085938 -0.617188 L 2.085938 -3.339844 C 2.378906 -4.199219 2.839844 -4.316406 3.25 -4.316406 C 3.886719 -4.316406 4.289062 -4.132812 4.550781 -3.4375 L 4.679688 -3.4375 L 4.40625 -4.71875 C 4.40625 -4.71875 4.101562 -4.945312 3.523438 -4.945312 C 2.625 -4.945312 2.320312 -4.21875 2.125 -3.796875 L 2.085938 -3.796875 L 2.085938 -4.828125 Z M 0.292969 -4.472656 "/></g></g></g><g fill="rgb(80.389404%, 57.649231%, 25.489807%)" fill-opacity="1"><g transform="translate(58.726869, 17.794309)"><g><path d="M 0.292969 -4.472656 L 0.292969 -4.347656 C 0.800781 -4.347656 1.105469 -4.179688 1.105469 -3.789062 L 1.105469 -0.65625 C 1.105469 -0.207031 0.882812 -0.128906 0.410156 -0.128906 L 0.410156 0 L 2.78125 0 L 2.78125 -0.128906 C 2.328125 -0.128906 2.105469 -0.195312 2.085938 -0.617188 L 2.085938 -3.339844 C 2.378906 -4.199219 2.839844 -4.316406 3.25 -4.316406 C 3.886719 -4.316406 4.289062 -4.132812 4.550781 -3.4375 L 4.679688 -3.4375 L 4.40625 -4.71875 C 4.40625 -4.71875 4.101562 -4.945312 3.523438 -4.945312 C 2.625 -4.945312 2.320312 -4.21875 2.125 -3.796875 L 2.085938 -3.796875 L 2.085938 -4.828125 Z M 0.292969 -4.472656 "/></g></g></g><g fill="rgb(80.389404%, 57.649231%, 25.489807%)" fill-opacity="1"><g transform="translate(63.659739, 17.794309)"><g><path d="M 0.390625 -1.410156 C 0.390625 -0.527344 0.980469 0.117188 1.996094 0.117188 C 2.574219 0.117188 3.261719 -0.148438 3.632812 -0.832031 L 3.671875 -0.832031 C 3.671875 -0.167969 3.945312 0.117188 4.757812 0.117188 C 5.640625 0.117188 5.875 -0.402344 5.875 -0.949219 L 5.746094 -0.949219 C 5.746094 -0.625 5.578125 -0.136719 5.121094 -0.136719 C 4.738281 -0.136719 4.648438 -0.441406 4.648438 -0.949219 L 4.648438 -3.328125 C 4.648438 -4.277344 3.828125 -4.945312 2.496094 -4.945312 C 1.59375 -4.945312 0.566406 -4.40625 0.566406 -3.121094 L 0.695312 -3.121094 C 0.695312 -3.867188 1.261719 -4.453125 2.308594 -4.453125 C 3.339844 -4.453125 3.671875 -3.867188 3.671875 -3.328125 L 3.671875 -2.75 C 3.417969 -2.925781 3.054688 -3.0625 2.429688 -3.0625 C 1.761719 -3.0625 0.390625 -2.769531 0.390625 -1.410156 Z M 2.449219 -0.421875 C 1.734375 -0.421875 1.371094 -0.921875 1.371094 -1.714844 C 1.371094 -2.269531 1.675781 -2.878906 2.429688 -2.925781 C 2.839844 -2.957031 3.359375 -2.828125 3.671875 -2.574219 L 3.671875 -1.675781 C 3.671875 -0.84375 3.082031 -0.421875 2.449219 -0.421875 Z M 2.449219 -0.421875 "/></g></g></g><g fill="rgb(80.389404%, 57.649231%, 25.489807%)" fill-opacity="1"><g transform="translate(15.794826, 23.986647)"><g><path d="M 1.03125 -0.5625 C 1.03125 -0.351562 0.984375 -0.195312 0.890625 -0.09375 C 0.804688 0 0.660156 0.046875 0.453125 0.046875 C 0.398438 0.046875 0.335938 0.0351562 0.265625 0.015625 C 0.191406 0.00390625 0.128906 -0.0078125 0.078125 -0.03125 L 0.171875 -0.265625 C 0.203125 -0.242188 0.25 -0.226562 0.3125 -0.21875 C 0.375 -0.207031 0.421875 -0.203125 0.453125 -0.203125 C 0.535156 -0.203125 0.597656 -0.210938 0.640625 -0.234375 C 0.679688 -0.265625 0.710938 -0.3125 0.734375 -0.375 C 0.753906 -0.4375 0.765625 -0.535156 0.765625 -0.671875 L 0.765625 -2.03125 L 1.03125 -2.03125 Z M 1.03125 -0.5625 "/></g></g></g><g fill="rgb(80.389404%, 57.649231%, 25.489807%)" fill-opacity="1"><g transform="translate(17.630031, 23.986647)"><g><path d="M 0.078125 0 L 0.765625 -2.03125 L 1.125 -2.03125 L 1.828125 0 L 1.53125 0 L 1.359375 -0.53125 L 0.53125 -0.53125 L 0.359375 0 Z M 0.609375 -0.78125 L 1.265625 -0.78125 L 0.9375 -1.765625 Z M 0.609375 -0.78125 "/></g></g></g><g fill="rgb(80.389404%, 57.649231%, 25.489807%)" fill-opacity="1"><g transform="translate(20.058922, 23.986647)"><g><path d="M 1.421875 0 L 0.890625 -0.828125 L 0.546875 -0.828125 L 0.546875 0 L 0.265625 0 L 0.265625 -2.03125 L 0.90625 -2.03125 C 1.15625 -2.03125 1.332031 -1.984375 1.4375 -1.890625 C 1.550781 -1.804688 1.609375 -1.664062 1.609375 -1.46875 C 1.609375 -1.300781 1.570312 -1.164062 1.5 -1.0625 C 1.4375 -0.96875 1.332031 -0.90625 1.1875 -0.875 L 1.734375 0 Z M 1.328125 -1.4375 C 1.328125 -1.570312 1.289062 -1.664062 1.21875 -1.71875 C 1.15625 -1.769531 1.046875 -1.796875 0.890625 -1.796875 L 0.546875 -1.796875 L 0.546875 -1.078125 L 0.875 -1.078125 C 0.988281 -1.078125 1.078125 -1.085938 1.140625 -1.109375 C 1.210938 -1.128906 1.257812 -1.164062 1.28125 -1.21875 C 1.3125 -1.269531 1.328125 -1.34375 1.328125 -1.4375 Z M 1.328125 -1.4375 "/></g></g></g><g fill="rgb(80.389404%, 57.649231%, 25.489807%)" fill-opacity="1"><g transform="translate(22.412683, 23.986647)"><g><path d="M 1.734375 -1.015625 C 1.734375 -0.765625 1.695312 -0.566406 1.625 -0.421875 C 1.5625 -0.273438 1.460938 -0.164062 1.328125 -0.09375 C 1.203125 -0.03125 1.015625 0 0.765625 0 L 0.25 0 L 0.25 -2.03125 L 0.765625 -2.03125 C 1.003906 -2.03125 1.191406 -1.992188 1.328125 -1.921875 C 1.460938 -1.859375 1.5625 -1.753906 1.625 -1.609375 C 1.695312 -1.460938 1.734375 -1.265625 1.734375 -1.015625 Z M 1.4375 -1.015625 C 1.4375 -1.210938 1.414062 -1.363281 1.375 -1.46875 C 1.332031 -1.582031 1.257812 -1.664062 1.15625 -1.71875 C 1.0625 -1.769531 0.925781 -1.796875 0.75 -1.796875 L 0.515625 -1.796875 L 0.515625 -0.25 L 0.75 -0.25 C 0.925781 -0.25 1.0625 -0.269531 1.15625 -0.3125 C 1.257812 -0.363281 1.332031 -0.441406 1.375 -0.546875 C 1.414062 -0.660156 1.4375 -0.816406 1.4375 -1.015625 Z M 1.4375 -1.015625 "/></g></g></g><g fill="rgb(80.389404%, 57.649231%, 25.489807%)" fill-opacity="1"><g transform="translate(24.847466, 23.986647)"><g><path d="M 0.984375 0 L 0.15625 0 L 0.15625 -0.234375 L 0.4375 -0.234375 L 0.4375 -1.8125 L 0.15625 -1.8125 L 0.15625 -2.03125 L 0.984375 -2.03125 L 0.984375 -1.8125 L 0.703125 -1.8125 L 0.703125 -0.234375 L 0.984375 -0.234375 Z M 0.984375 0 "/></g></g></g><g fill="rgb(80.389404%, 57.649231%, 25.489807%)" fill-opacity="1"><g transform="translate(26.513256, 23.986647)"><g><path d="M 1.453125 0 L 0.53125 -1.75 L 0.53125 0 L 0.265625 0 L 0.265625 -2.03125 L 0.671875 -2.03125 L 1.515625 -0.4375 L 1.515625 -2.03125 L 1.765625 -2.03125 L 1.765625 0 Z M 1.453125 0 "/></g></g></g><g fill="rgb(80.389404%, 57.649231%, 25.489807%)" fill-opacity="1"><g transform="translate(29.086517, 23.986647)"><g><path d="M 0.265625 0 L 0.265625 -2.03125 L 1.515625 -2.03125 L 1.515625 -1.796875 L 0.546875 -1.796875 L 0.546875 -1.203125 L 1.375 -1.203125 L 1.375 -0.953125 L 0.546875 -0.953125 L 0.546875 -0.25 L 1.515625 -0.25 L 1.515625 0 Z M 0.265625 0 "/></g></g></g><g fill="rgb(80.389404%, 57.649231%, 25.489807%)" fill-opacity="1"><g transform="translate(31.316532, 23.986647)"><g><path d="M 1.421875 0 L 0.890625 -0.828125 L 0.546875 -0.828125 L 0.546875 0 L 0.265625 0 L 0.265625 -2.03125 L 0.90625 -2.03125 C 1.15625 -2.03125 1.332031 -1.984375 1.4375 -1.890625 C 1.550781 -1.804688 1.609375 -1.664062 1.609375 -1.46875 C 1.609375 -1.300781 1.570312 -1.164062 1.5 -1.0625 C 1.4375 -0.96875 1.332031 -0.90625 1.1875 -0.875 L 1.734375 0 Z M 1.328125 -1.4375 C 1.328125 -1.570312 1.289062 -1.664062 1.21875 -1.71875 C 1.15625 -1.769531 1.046875 -1.796875 0.890625 -1.796875 L 0.546875 -1.796875 L 0.546875 -1.078125 L 0.875 -1.078125 C 0.988281 -1.078125 1.078125 -1.085938 1.140625 -1.109375 C 1.210938 -1.128906 1.257812 -1.164062 1.28125 -1.21875 C 1.3125 -1.269531 1.328125 -1.34375 1.328125 -1.4375 Z M 1.328125 -1.4375 "/></g></g></g><g fill="rgb(80.389404%, 57.649231%, 25.489807%)" fill-opacity="1"><g transform="translate(33.670292, 23.986647)"><g><path d="M 0.984375 0 L 0.15625 0 L 0.15625 -0.234375 L 0.4375 -0.234375 L 0.4375 -1.8125 L 0.15625 -1.8125 L 0.15625 -2.03125 L 0.984375 -2.03125 L 0.984375 -1.8125 L 0.703125 -1.8125 L 0.703125 -0.234375 L 0.984375 -0.234375 Z M 0.984375 0 "/></g></g></g><g fill="rgb(80.389404%, 57.649231%, 25.489807%)" fill-opacity="1"><g transform="translate(35.336082, 23.986647)"><g><path d="M 0.078125 0 L 0.765625 -2.03125 L 1.125 -2.03125 L 1.828125 0 L 1.53125 0 L 1.359375 -0.53125 L 0.53125 -0.53125 L 0.359375 0 Z M 0.609375 -0.78125 L 1.265625 -0.78125 L 0.9375 -1.765625 Z M 0.609375 -0.78125 "/></g></g></g><g fill="rgb(80.389404%, 57.649231%, 25.489807%)" fill-opacity="1"><g transform="translate(37.764973, 23.986647)"><g/></g></g><g fill="rgb(80.389404%, 57.649231%, 25.489807%)" fill-opacity="1"><g transform="translate(39.111086, 23.986647)"><g><path d="M 0.984375 -0.78125 L 0.984375 0 L 0.703125 0 L 0.703125 -0.78125 L 0.0625 -2.03125 L 0.375 -2.03125 L 0.84375 -1.046875 L 1.328125 -2.03125 L 1.625 -2.03125 Z M 0.984375 -0.78125 "/></g></g></g><g fill="rgb(80.389404%, 57.649231%, 25.489807%)" fill-opacity="1"><g transform="translate(41.332261, 23.986647)"><g/></g></g><g fill="rgb(80.389404%, 57.649231%, 25.489807%)" fill-opacity="1"><g transform="translate(42.678375, 23.986647)"><g><path d="M 1.8125 0 L 1.8125 -1.6875 L 1.25 -0.5625 L 1.078125 -0.5625 L 0.53125 -1.6875 L 0.53125 0 L 0.265625 0 L 0.265625 -2.03125 L 0.640625 -2.03125 L 1.171875 -0.921875 L 1.71875 -2.03125 L 2.078125 -2.03125 L 2.078125 0 Z M 1.8125 0 "/></g></g></g><g fill="rgb(80.389404%, 57.649231%, 25.489807%)" fill-opacity="1"><g transform="translate(45.556583, 23.986647)"><g><path d="M 0.078125 0 L 0.765625 -2.03125 L 1.125 -2.03125 L 1.828125 0 L 1.53125 0 L 1.359375 -0.53125 L 0.53125 -0.53125 L 0.359375 0 Z M 0.609375 -0.78125 L 1.265625 -0.78125 L 0.9375 -1.765625 Z M 0.609375 -0.78125 "/></g></g></g><g fill="rgb(80.389404%, 57.649231%, 25.489807%)" fill-opacity="1"><g transform="translate(47.985474, 23.986647)"><g><path d="M 1.828125 -0.359375 C 1.765625 -0.253906 1.695312 -0.175781 1.625 -0.125 C 1.5625 -0.0703125 1.484375 -0.03125 1.390625 0 C 1.304688 0.03125 1.203125 0.046875 1.078125 0.046875 C 0.773438 0.046875 0.550781 -0.0390625 0.40625 -0.21875 C 0.257812 -0.394531 0.1875 -0.660156 0.1875 -1.015625 C 0.1875 -1.367188 0.257812 -1.632812 0.40625 -1.8125 C 0.550781 -1.988281 0.773438 -2.078125 1.078125 -2.078125 C 1.191406 -2.078125 1.296875 -2.0625 1.390625 -2.03125 C 1.484375 -2.007812 1.5625 -1.972656 1.625 -1.921875 C 1.6875 -1.867188 1.742188 -1.796875 1.796875 -1.703125 L 1.578125 -1.546875 C 1.535156 -1.617188 1.488281 -1.671875 1.4375 -1.703125 C 1.394531 -1.742188 1.34375 -1.773438 1.28125 -1.796875 C 1.21875 -1.828125 1.148438 -1.84375 1.078125 -1.84375 C 0.867188 -1.84375 0.71875 -1.773438 0.625 -1.640625 C 0.53125 -1.503906 0.484375 -1.296875 0.484375 -1.015625 C 0.484375 -0.742188 0.53125 -0.539062 0.625 -0.40625 C 0.71875 -0.269531 0.867188 -0.203125 1.078125 -0.203125 C 1.191406 -0.203125 1.289062 -0.222656 1.375 -0.265625 C 1.457031 -0.304688 1.535156 -0.382812 1.609375 -0.5 Z M 1.828125 -0.359375 "/></g></g></g><g fill="rgb(80.389404%, 57.649231%, 25.489807%)" fill-opacity="1"><g transform="translate(50.462981, 23.986647)"><g><path d="M 0.265625 0 L 0.265625 -2.03125 L 1.515625 -2.03125 L 1.515625 -1.796875 L 0.546875 -1.796875 L 0.546875 -1.203125 L 1.375 -1.203125 L 1.375 -0.953125 L 0.546875 -0.953125 L 0.546875 -0.25 L 1.515625 -0.25 L 1.515625 0 Z M 0.265625 0 "/></g></g></g><g fill="rgb(80.389404%, 57.649231%, 25.489807%)" fill-opacity="1"><g transform="translate(52.692996, 23.986647)"><g><path d="M 1 -1.796875 L 1 0 L 0.734375 0 L 0.734375 -1.796875 L 0.0625 -1.796875 L 0.0625 -2.03125 L 1.6875 -2.03125 L 1.6875 -1.796875 Z M 1 -1.796875 "/></g></g></g><g fill="rgb(80.389404%, 57.649231%, 25.489807%)" fill-opacity="1"><g transform="translate(54.968677, 23.986647)"><g><path d="M 0.078125 0 L 0.765625 -2.03125 L 1.125 -2.03125 L 1.828125 0 L 1.53125 0 L 1.359375 -0.53125 L 0.53125 -0.53125 L 0.359375 0 Z M 0.609375 -0.78125 L 1.265625 -0.78125 L 0.9375 -1.765625 Z M 0.609375 -0.78125 "/></g></g></g><g fill="rgb(80.389404%, 57.649231%, 25.489807%)" fill-opacity="1"><g transform="translate(57.397568, 23.986647)"><g><path d="M 1.640625 -0.5625 C 1.640625 -0.363281 1.578125 -0.210938 1.453125 -0.109375 C 1.328125 -0.00390625 1.144531 0.046875 0.90625 0.046875 C 0.71875 0.046875 0.5625 0.015625 0.4375 -0.046875 C 0.3125 -0.117188 0.210938 -0.222656 0.140625 -0.359375 L 0.359375 -0.5 C 0.472656 -0.300781 0.648438 -0.203125 0.890625 -0.203125 C 1.035156 -0.203125 1.148438 -0.226562 1.234375 -0.28125 C 1.316406 -0.34375 1.359375 -0.425781 1.359375 -0.53125 C 1.359375 -0.59375 1.34375 -0.644531 1.3125 -0.6875 C 1.289062 -0.726562 1.257812 -0.757812 1.21875 -0.78125 C 1.175781 -0.8125 1.125 -0.835938 1.0625 -0.859375 C 1.007812 -0.878906 0.953125 -0.894531 0.890625 -0.90625 C 0.785156 -0.9375 0.691406 -0.960938 0.609375 -0.984375 C 0.523438 -1.015625 0.453125 -1.050781 0.390625 -1.09375 C 0.328125 -1.132812 0.273438 -1.1875 0.234375 -1.25 C 0.203125 -1.3125 0.1875 -1.394531 0.1875 -1.5 C 0.1875 -1.675781 0.242188 -1.816406 0.359375 -1.921875 C 0.472656 -2.023438 0.644531 -2.078125 0.875 -2.078125 C 1.0625 -2.078125 1.207031 -2.039062 1.3125 -1.96875 C 1.425781 -1.90625 1.515625 -1.820312 1.578125 -1.71875 L 1.359375 -1.5625 C 1.304688 -1.644531 1.242188 -1.710938 1.171875 -1.765625 C 1.097656 -1.816406 1 -1.84375 0.875 -1.84375 C 0.75 -1.84375 0.644531 -1.8125 0.5625 -1.75 C 0.488281 -1.6875 0.453125 -1.609375 0.453125 -1.515625 C 0.453125 -1.460938 0.460938 -1.414062 0.484375 -1.375 C 0.515625 -1.34375 0.550781 -1.316406 0.59375 -1.296875 C 0.632812 -1.273438 0.679688 -1.253906 0.734375 -1.234375 C 0.796875 -1.210938 0.867188 -1.191406 0.953125 -1.171875 C 1.046875 -1.148438 1.132812 -1.125 1.21875 -1.09375 C 1.300781 -1.070312 1.375 -1.035156 1.4375 -0.984375 C 1.5 -0.941406 1.546875 -0.882812 1.578125 -0.8125 C 1.617188 -0.75 1.640625 -0.664062 1.640625 -0.5625 Z M 1.640625 -0.5625 "/></g></g></g></svg>